<?xml version="1.0" encoding="UTF-8"?>
<svg id="Layer_2" data-name="Layer 2" xmlns="http://www.w3.org/2000/svg" viewBox="0 0 41.48 48.3">
  <defs>
    <style>
      .cls-1 {
        font-family: Arial-Black, 'Arial Black';
        font-size: 29px;
        font-weight: 800;
        letter-spacing: .03em;
      }

      .cls-1, .cls-2 {
        fill: #cc302e;
      }

      .cls-3 {
        fill: #fff;
      }
    </style>
  </defs>
  <g id="Layer_1-2" data-name="Layer 1">
    <polyline class="cls-3" points="3.45 13.04 14.76 2.87 26.06 2.87 34.72 9.34 38.44 19.63 35.65 30.45 29.06 38.28 21.16 45.82 13.4 39.6 6.84 30.45 3.45 22.08"/>
    <g>
      <path class="cls-2" d="m20.43,0c12.48,0,22.16,10.27,20.95,21.31-.51,4.64-2.75,8.61-5.19,12.41-2.86,4.45-6.24,8.52-10.09,12.17-3.21,3.05-7.23,3.3-10.37.28-6.47-6.22-12.35-13.08-14.96-21.77C-1.59,16.51,1.49,7.93,9.72,2.68,13.09.53,14.66,0,20.43,0Zm.42,5.42c-3.35,0-6.39.65-8.19,2.06-6.73,5.28-8.8,11.36-4.83,19.11,2.95,5.76,7.1,10.73,11.81,15.21,1.03.97,1.57.6,2.42-.24,3.44-3.39,6.62-6.97,9.25-11.06,1.73-2.69,3.47-5.43,4.09-8.5,1.77-8.7-6.27-17.33-14.55-16.58Z"/>
      <text class="cls-1" transform="translate(12.38 32.14)"><tspan x="0" y="0">?</tspan></text>
    </g>
  </g>
</svg>