<?xml version="1.0" encoding="UTF-8"?>
<svg id="Layer_2" data-name="Layer 2" xmlns="http://www.w3.org/2000/svg" viewBox="0 0 173.54 46.99">
  <defs>
    <style>
      .cls-1 {
        font-family: Poppins-Bold, Poppins;
        font-size: 29px;
        font-weight: 700;
        letter-spacing: .03em;
      }

      .cls-1, .cls-2, .cls-3 {
        fill: #cc302e;
      }

      .cls-3, .cls-4 {
        fill-rule: evenodd;
      }

      .cls-4, .cls-5 {
        fill: #fff;
      }

      .cls-5 {
        stroke: #fff;
        stroke-linecap: round;
        stroke-miterlimit: 10;
        stroke-width: 8.5px;
      }
    </style>
  </defs>
  <g id="Layer_1-2" data-name="Layer 1">
    <g>
      <rect class="cls-5" x="125.18" y="8.72" width="6.93" height="22.36" rx="1" ry="1"/>
      <path class="cls-5" d="m134.5,31.08c-.55,0-1-.45-1-1V9.72c0-.55.45-1,1-1h7.69c2.34,0,4.41.47,6.14,1.38,1.76.93,3.13,2.27,4.08,3.97.93,1.68,1.41,3.63,1.41,5.79s-.47,4.11-1.41,5.8c-.94,1.71-2.32,3.06-4.09,4.01-1.74.94-3.81,1.42-6.13,1.42h-7.69Zm7.26-6.41c1.67,0,2.91-.41,3.79-1.25.87-.83,1.29-2,1.29-3.57s-.42-2.74-1.29-3.57c-.88-.84-2.12-1.25-3.79-1.25h-1.33v9.64h1.33Z"/>
      <path class="cls-5" d="m155.62,31.08c-.55,0-1-.45-1-1V9.72c0-.55.45-1,1-1h12.67c.55,0,1,.45,1,1v3.92c0,.55-.45,1-1,1h-6.75v2.26h5.88c.55,0,1,.45,1,1v3.72c0,.55-.45,1-1,1h-5.88v2.52h6.75c.55,0,1,.45,1,1v3.95c0,.55-.45,1-1,1h-12.67Z"/>
    </g>
    <text class="cls-1" transform="translate(123.83 29.42)"><tspan x="0" y="0">IDE</tspan></text>
    <path class="cls-4" d="m123.13,6.2c-.91-1.03-2.24-1.68-3.73-1.68h-3.95c-1.49,0-2.82.65-3.73,1.68-.91-1.03-2.24-1.68-3.72-1.68h-5.49c-1.91,0-3.56,1.08-4.39,2.65-.54-.43-1.11-.82-1.71-1.16-2.41-1.38-5.19-2.08-8.26-2.08-2.31,0-4.48.39-6.43,1.15-2.01.79-3.77,1.91-5.22,3.36-.36.36-.7.73-1.02,1.13-2.65-5.64-8.38-9.56-15.01-9.56-5.3,0-10.01,2.5-13.05,6.38-.91-1.13-2.29-1.86-3.85-1.86h-12.01c-2.15,0-3.97,1.37-4.66,3.27-.75-.68-1.55-1.28-2.43-1.78-2.42-1.38-5.2-2.08-8.26-2.08-2.31,0-4.48.39-6.43,1.15-2.01.79-3.77,1.91-5.22,3.36-1.48,1.46-2.62,3.22-3.4,5.23-.75,1.93-1.13,4.06-1.13,6.3s.39,4.42,1.16,6.36c.79,1.99,1.92,3.74,3.36,5.19,1.45,1.46,3.19,2.6,5.17,3.39,1.93.77,4.07,1.16,6.34,1.16,1.63,0,3.23-.21,4.73-.63,1.54-.43,2.99-1.06,4.31-1.88.65-.4,1.25-.86,1.82-1.36.69,1.91,2.51,3.28,4.67,3.28h12.01c2.74,0,4.96-2.22,4.96-4.95v-2.04c1.92,2.89,4.62,6.26,8.43,10.06.97.97,2.24,1.45,3.51,1.45s2.54-.48,3.51-1.45c4.51-4.5,7.48-8.4,9.42-11.62.77,1.74,1.79,3.28,3.09,4.59,1.45,1.46,3.19,2.6,5.17,3.39,1.93.77,4.07,1.16,6.34,1.16,1.63,0,3.23-.21,4.73-.63,1.54-.43,2.99-1.06,4.31-1.88,1.2-.75,2.26-1.68,3.19-2.75.33.44.68.86,1.07,1.24,2.47,2.47,5.99,3.71,10.45,3.71,3.84,0,6.97-.93,9.33-2.75,0,0,2.95-3.57,2.95-12.04,0-11.82-.88-14.79-.88-14.79Z"/>
    <path class="cls-3" d="m60.46,4.95c6.44,0,11.64,5.21,11.64,11.63,0,0,.39,6.47-11.64,18.46-12.02-12-11.63-18.46-11.63-18.46,0-6.43,5.2-11.63,11.63-11.63Zm-3.05,8.58c0,1.68,1.37,3.05,3.05,3.05s3.05-1.37,3.05-3.05c0-1.69-1.37-3.05-3.05-3.05s-3.05,1.36-3.05,3.05Z"/>
    <path class="cls-2" d="m16.19,22.99h4.51c-.09.61-.27,1.14-.53,1.56-.26.43-.59.78-.99,1.05-.4.27-.85.47-1.36.59-.5.12-1.03.18-1.57.18-.91,0-1.72-.15-2.41-.46-.69-.31-1.27-.74-1.74-1.3-.47-.56-.82-1.22-1.05-1.98-.23-.76-.35-1.59-.35-2.49,0-.99.13-1.88.41-2.68.27-.8.64-1.49,1.12-2.05.48-.57,1.05-1,1.72-1.31.67-.31,1.42-.46,2.24-.46.99,0,1.87.25,2.65.75.77.5,1.4,1.33,1.89,2.49l5.21-2.15c-.97-1.99-2.29-3.46-3.95-4.41-1.66-.95-3.59-1.43-5.8-1.43-1.7,0-3.24.27-4.62.81-1.38.54-2.56,1.3-3.54,2.26-.98.97-1.74,2.14-2.27,3.51-.53,1.37-.8,2.87-.8,4.51s.27,3.17.81,4.54c.54,1.37,1.3,2.54,2.27,3.52.97.98,2.13,1.74,3.49,2.28,1.35.54,2.85.81,4.49.81,1.19,0,2.33-.15,3.42-.45,1.08-.3,2.08-.73,2.98-1.3.91-.57,1.69-1.28,2.37-2.12.67-.85,1.2-1.82,1.6-2.92.28-.78.47-1.63.56-2.54.09-.91.14-1.93.14-3.05h-10.89v4.25Z"/>
    <path class="cls-2" d="m31.55,30.54h12.01v-4.64h-6.53v-3.63h6.16v-4.64h-6.16v-3.52h6.53v-4.64h-12.01v21.07Z"/>
    <path class="cls-2" d="m92.66,22.99h-4.51v-4.25h10.89c0,1.12-.05,2.13-.14,3.05-.09.91-.28,1.76-.56,2.54-.39,1.1-.92,2.07-1.6,2.92-.67.85-1.46,1.56-2.37,2.12-.91.57-1.9,1-2.98,1.3-1.08.3-2.22.45-3.42.45-1.64,0-3.14-.27-4.49-.81-1.35-.54-2.52-1.3-3.49-2.28-.97-.98-1.73-2.15-2.27-3.52-.54-1.37-.81-2.88-.81-4.54s.27-3.14.8-4.51c.53-1.37,1.29-2.54,2.27-3.51.98-.97,2.16-1.72,3.54-2.26,1.38-.54,2.92-.81,4.62-.81,2.2,0,4.13.48,5.8,1.43,1.66.95,2.98,2.42,3.95,4.41l-5.21,2.15c-.49-1.16-1.12-1.98-1.89-2.49-.78-.5-1.66-.75-2.65-.75-.82,0-1.57.15-2.24.46-.67.31-1.25.75-1.72,1.31-.48.57-.85,1.25-1.12,2.05-.27.8-.41,1.7-.41,2.68,0,.89.12,1.72.35,2.49.23.76.58,1.43,1.05,1.98.47.56,1.05.99,1.74,1.3.69.31,1.49.46,2.41.46.54,0,1.06-.06,1.57-.18.5-.12.96-.32,1.36-.59.4-.27.73-.62.99-1.05.26-.43.44-.95.53-1.56Z"/>
    <path class="cls-2" d="m115.46,20.63c0,.61-.03,1.24-.07,1.89-.05.64-.19,1.23-.43,1.75-.24.52-.61.95-1.1,1.27-.5.33-1.2.49-2.12.49s-1.62-.16-2.13-.49c-.5-.33-.87-.75-1.11-1.27-.24-.52-.37-1.1-.42-1.75-.05-.64-.07-1.27-.07-1.89v-11.46h-5.49v12.21c0,3.28.76,5.67,2.27,7.18,1.51,1.51,3.83,2.26,6.94,2.26s5.43-.75,6.93-2.26c1.5-1.51,2.25-3.9,2.25-7.18v-12.21h-5.46v11.46Z"/>
  </g>
</svg>