<?xml version="1.0" encoding="utf-8"?>
<!-- Generator: Adobe Illustrator 27.2.0, SVG Export Plug-In . SVG Version: 6.00 Build 0)  -->
<svg version="1.1" id="Layer_2_00000002366173017044440810000006288674377563550085_"
	 xmlns="http://www.w3.org/2000/svg" xmlns:xlink="http://www.w3.org/1999/xlink" x="0px" y="0px" viewBox="0 0 173.5 40"
	 style="enable-background:new 0 0 173.5 40;" xml:space="preserve">
<style type="text/css">
	.st0{fill:none;stroke:#CC302E;stroke-width:8.5;stroke-linecap:round;stroke-miterlimit:10;}
	.st1{enable-background:new    ;}
	.st2{fill:#FFFFFF;}
	.st3{fill:#CC302E;}
	.st4{fill-rule:evenodd;clip-rule:evenodd;fill:#CC302E;}
	.st5{fill-rule:evenodd;clip-rule:evenodd;fill:#FFFFFF;}
</style>
<g id="Layer_1-2">
	<g>
		<path class="st0" d="M126.2,8.7h4.9c0.6,0,1,0.4,1,1v20.4c0,0.6-0.4,1-1,1h-4.9c-0.6,0-1-0.4-1-1V9.7
			C125.2,9.2,125.6,8.7,126.2,8.7z"/>
		<path class="st0" d="M134.5,31.1c-0.6,0-1-0.5-1-1V9.7c0-0.6,0.4-1,1-1h7.7c2.3,0,4.4,0.5,6.1,1.4c1.8,0.9,3.1,2.3,4.1,4
			c0.9,1.7,1.4,3.6,1.4,5.8s-0.5,4.1-1.4,5.8c-0.9,1.7-2.3,3.1-4.1,4c-1.7,0.9-3.8,1.4-6.1,1.4L134.5,31.1L134.5,31.1z M141.8,24.7
			c1.7,0,2.9-0.4,3.8-1.2c0.9-0.8,1.3-2,1.3-3.6s-0.4-2.7-1.3-3.6c-0.9-0.8-2.1-1.2-3.8-1.2h-1.3v9.6
			C140.4,24.7,141.8,24.7,141.8,24.7z"/>
		<path class="st0" d="M155.6,31.1c-0.6,0-1-0.5-1-1V9.7c0-0.6,0.4-1,1-1h12.7c0.6,0,1,0.4,1,1v3.9c0,0.6-0.4,1-1,1h-6.8v2.3h5.9
			c0.6,0,1,0.5,1,1v3.7c0,0.5-0.4,1-1,1h-5.9v2.5h6.8c0.6,0,1,0.5,1,1v4c0,0.5-0.4,1-1,1L155.6,31.1L155.6,31.1z"/>
	</g>
	<g class="st1">
		<rect x="125.5" y="8.9" class="st2" width="5" height="20.5"/>
		<path class="st2" d="M151.9,24.5c-0.9,1.6-2.1,2.8-3.7,3.6s-3.5,1.3-5.7,1.3h-7.7V8.9h7.7c2.2,0,4.1,0.4,5.7,1.3s2.8,2,3.7,3.6
			s1.3,3.3,1.3,5.3S152.8,22.9,151.9,24.5z"/>
		<path class="st3" d="M146.6,23.4c1.1-1,1.6-2.5,1.6-4.3c0-1.9-0.5-3.3-1.6-4.3c-1.1-1-2.6-1.5-4.5-1.5h-2.3V25h2.3
			C144,25,145.5,24.5,146.6,23.4z"/>
		<polygon class="st2" points="161.9,12.9 161.9,17.2 168.8,17.2 168.8,20.9 161.9,20.9 161.9,25.4 169.7,25.4 169.7,29.4 
			156.9,29.4 156.9,8.9 169.7,8.9 169.7,12.9 		"/>
	</g>
	<path class="st4" d="M123.1,6.2c-0.9-1-2.2-1.7-3.7-1.7h-3.9c-1.5,0-2.8,0.7-3.7,1.7c-0.9-1-2.2-1.7-3.7-1.7h-5.5
		c-1.9,0-3.6,1.1-4.4,2.7C97.6,6.7,97,6.3,96.4,6c-2.4-1.4-5.2-2.1-8.3-2.1c-2.3,0-4.5,0.4-6.4,1.2c-2,0.8-3.8,1.9-5.2,3.4
		c-0.4,0.4-0.7,0.7-1,1.1C72.8,3.9,67.1,0,60.5,0c-5.3,0-10,2.5-13,6.4c-0.9-1.1-2.3-1.9-3.8-1.9h-12c-2.1,0-4,1.4-4.7,3.3
		c-0.8-0.7-1.5-1.3-2.4-1.8c-2.4-1.4-5.2-2.1-8.3-2.1c-2.3,0-4.5,0.4-6.4,1.2C7.8,5.9,6,7,4.6,8.5c-1.5,1.5-2.6,3.2-3.4,5.2
		C0.4,15.6,0,17.7,0,20s0.4,4.4,1.2,6.4c0.8,2,1.9,3.7,3.4,5.2C6,33,7.7,34.1,9.7,34.9c1.9,0.8,4.1,1.2,6.3,1.2
		c1.6,0,3.2-0.2,4.7-0.6c1.5-0.4,3-1.1,4.3-1.9c0.6-0.4,1.2-0.9,1.8-1.4c0.7,1.9,2.5,3.3,4.7,3.3h12c2.7,0,5-2.2,5-5v-2
		c1.9,2.9,4.6,6.3,8.4,10.1c1,1,2.2,1.5,3.5,1.5s2.5-0.5,3.5-1.5c4.5-4.5,7.5-8.4,9.4-11.6c0.8,1.7,1.8,3.3,3.1,4.6
		c1.4,1.5,3.2,2.6,5.2,3.4c1.9,0.8,4.1,1.2,6.3,1.2c1.6,0,3.2-0.2,4.7-0.6c1.5-0.4,3-1.1,4.3-1.9c1.2-0.8,2.3-1.7,3.2-2.8
		c0.3,0.4,0.7,0.9,1.1,1.2c2.5,2.5,6,3.7,10.4,3.7c3.8,0,7-0.9,9.3-2.8c0,0,2.9-3.6,2.9-12C124.1,9.2,123.2,6.2,123.1,6.2L123.1,6.2
		z"/>
	<path class="st5" d="M60.5,4.9c6.4,0,11.6,5.2,11.6,11.6c0,0,0.4,6.5-11.6,18.5c-12-12-11.6-18.5-11.6-18.5
		C48.8,10.2,54,5,60.5,4.9z M57.4,13.5c0,1.7,1.4,3.1,3,3.1s3-1.4,3-3.1c0-1.7-1.4-3.1-3-3.1S57.4,11.8,57.4,13.5z"/>
	<path class="st2" d="M16.2,23h4.5c-0.1,0.6-0.3,1.1-0.5,1.6c-0.3,0.4-0.6,0.8-1,1c-0.4,0.3-0.9,0.5-1.4,0.6c-0.5,0.1-1,0.2-1.6,0.2
		c-0.9,0-1.7-0.1-2.4-0.5s-1.3-0.7-1.7-1.3c-0.5-0.6-0.8-1.2-1.1-2c-0.2-0.8-0.4-1.6-0.4-2.5c0-1,0.1-1.9,0.4-2.7
		c0.3-0.8,0.6-1.5,1.1-2.1c0.5-0.6,1.1-1,1.7-1.3s1.4-0.5,2.2-0.5c1,0,1.9,0.2,2.6,0.8c0.8,0.5,1.4,1.3,1.9,2.5l5.2-2.1
		c-1-2-2.3-3.5-4-4.4s-3.6-1.4-5.8-1.4c-1.7,0-3.2,0.3-4.6,0.8S9,11,8,12c-1,1-1.7,2.1-2.3,3.5S5,18.3,5,20s0.3,3.2,0.8,4.5
		S7.1,27.1,8,28s2.1,1.7,3.5,2.3c1.4,0.5,2.9,0.8,4.5,0.8c1.2,0,2.3-0.1,3.4-0.5c1.1-0.3,2.1-0.7,3-1.3c0.9-0.6,1.7-1.3,2.4-2.1
		c0.7-0.9,1.2-1.8,1.6-2.9c0.3-0.8,0.5-1.6,0.6-2.5s0.1-1.9,0.1-3H16.2L16.2,23L16.2,23z"/>
	<path class="st2" d="M31.5,30.5h12v-4.6H37v-3.6h6.2v-4.6H37v-3.5h6.5V9.5h-12C31.5,9.5,31.5,30.5,31.5,30.5z"/>
	<path class="st2" d="M92.7,23h-4.5v-4.2H99c0,1.1-0.1,2.1-0.1,3c-0.1,0.9-0.3,1.8-0.6,2.5c-0.4,1.1-0.9,2.1-1.6,2.9
		c-0.7,0.9-1.5,1.6-2.4,2.1c-0.9,0.6-1.9,1-3,1.3s-2.2,0.5-3.4,0.5c-1.6,0-3.1-0.3-4.5-0.8C82.1,29.8,81,29,80,28
		c-1-1-1.7-2.1-2.3-3.5c-0.5-1.4-0.8-2.9-0.8-4.5s0.3-3.1,0.8-4.5c0.5-1.4,1.3-2.5,2.3-3.5c1-1,2.2-1.7,3.5-2.3s2.9-0.8,4.6-0.8
		c2.2,0,4.1,0.5,5.8,1.4c1.7,0.9,3,2.4,3.9,4.4l-5.2,2.2c-0.5-1.2-1.1-2-1.9-2.5c-0.8-0.5-1.7-0.8-2.7-0.8c-0.8,0-1.6,0.1-2.2,0.5
		s-1.2,0.8-1.7,1.3c-0.5,0.6-0.8,1.2-1.1,2c-0.3,0.8-0.4,1.7-0.4,2.7c0,0.9,0.1,1.7,0.3,2.5c0.2,0.8,0.6,1.4,1.1,2
		c0.5,0.6,1.1,1,1.7,1.3c0.7,0.3,1.5,0.5,2.4,0.5c0.5,0,1.1-0.1,1.6-0.2c0.5-0.1,1-0.3,1.4-0.6s0.7-0.6,1-1
		C92.4,24.1,92.6,23.6,92.7,23L92.7,23z"/>
	<path class="st2" d="M115.5,20.6c0,0.6,0,1.2-0.1,1.9c-0.1,0.6-0.2,1.2-0.4,1.8s-0.6,1-1.1,1.3c-0.5,0.3-1.2,0.5-2.1,0.5
		s-1.6-0.2-2.1-0.5c-0.5-0.3-0.9-0.8-1.1-1.3s-0.4-1.1-0.4-1.8c-0.1-0.6-0.1-1.3-0.1-1.9V9.2h-5.5v12.2c0,3.3,0.8,5.7,2.3,7.2
		c1.5,1.5,3.8,2.3,6.9,2.3s5.4-0.8,6.9-2.3s2.2-3.9,2.2-7.2V9.2h-5.5L115.5,20.6L115.5,20.6z"/>
</g>
</svg>
