<?xml version="1.0" encoding="UTF-8"?>
<svg id="Layer_2" data-name="Layer 2" xmlns="http://www.w3.org/2000/svg" viewBox="0 0 173.56 40">
  <defs>
    <style>
      .cls-1, .cls-2 {
        fill: #fff;
      }

      .cls-2 {
        fill-rule: evenodd;
      }
    </style>
  </defs>
  <g id="Layer_1-2" data-name="Layer 1">
    <g>
      <g>
        <path class="cls-1" d="m142.19,13.26h-2.35v11.72h2.35c1.93,0,3.44-.51,4.51-1.54s1.61-2.47,1.61-4.32-.54-3.3-1.61-4.32c-1.07-1.02-2.58-1.54-4.51-1.54Z"/>
        <path class="cls-1" d="m172.82,23.64c-.26-.41-.38-.79-.24-1.24.03-.1.07-.2.07-.3,0-1.4.01-2.79.01-4.19,0-.19-.01-.39-.07-.58-.1-.32-.05-.61.18-.9.31-.41.45-.92.57-1.41.15-.59.22-1.19.2-1.81-.02-.5,0-1,0-1.5s-.04-.98.01-1.46c.05-.49-.11-.94-.16-1.41-.09-.9-.52-1.7-1.11-2.38-1.08-1.24-2.49-1.85-4.14-1.86-3.99-.01-7.99,0-11.98,0-.74,0-1.45.09-2.17.28-1.04.28-1.8.9-2.49,1.66-.32.35-.42.43-.79.17-.49-.36-1.08-.5-1.61-.77-.79-.4-1.65-.65-2.52-.82-.76-.15-1.52-.29-2.31-.33-.64-.04-1.29-.17-1.94-.18-2.57-.02-5.15,0-7.72-.02-.55,0-1.06.21-1.6.25-.16.01-.3.04-.46,0-.49-.15-1-.24-1.52-.24-.8,0-1.61,0-2.41,0-.68,0-1.35.01-2.03,0-.74-.02-1.46.08-2.17.31-.97.31-1.74.89-2.36,1.67-.85,1.07-1.15,2.29-1.14,3.66.03,6.49.02,12.98,0,19.47,0,.54-.02,1.08.1,1.6.52,2.25,2.46,4.05,4.8,4.11,1.72.04,3.45.01,5.17.03.37,0,.72-.07,1.08-.12.34-.05.68-.22,1.04-.08.25.1.5.17.78.17,2.85.06,5.71.01,8.56.02.33,0,.67-.07.97-.06.77.02,1.49-.16,2.24-.24.73-.08,1.42-.32,2.11-.53,1.08-.33,2.13-.78,3.08-1.39.26-.17.38-.13.57.11,1.05,1.37,2.42,2.11,4.17,2.11,4.06,0,8.13,0,12.19,0,.36,0,.7.03,1.07-.02,1.14-.15,2.11-.62,2.95-1.36,1.18-1.04,1.71-2.41,1.75-3.96.03-1.26.03-2.51,0-3.77-.02-.94-.19-1.87-.71-2.68Zm-42.32,5.78h-4.96V8.91h4.96v20.5Zm21.53-4.94c-.86,1.56-2.1,2.77-3.71,3.64s-3.51,1.3-5.7,1.3h-7.74V8.91h7.74c2.2,0,4.11.43,5.71,1.28,1.6.85,2.84,2.05,3.7,3.6s1.29,3.33,1.29,5.34-.43,3.79-1.29,5.35Zm17.82-11.61h-7.8v4.29h6.93v3.74h-6.93v4.55h7.8v3.97h-12.76V8.91h12.76v3.94Z"/>
      </g>
      <g>
        <path class="cls-2" d="m60.46,10.48c-1.69,0-3.05,1.36-3.05,3.05s1.37,3.05,3.05,3.05,3.05-1.37,3.05-3.05c0-1.69-1.37-3.05-3.05-3.05Z"/>
        <path class="cls-2" d="m123.13,6.2c-.91-1.03-2.24-1.68-3.73-1.68h-3.95c-1.48,0-2.82.65-3.73,1.68-.91-1.03-2.24-1.68-3.72-1.68h-5.49c-1.91,0-3.56,1.08-4.39,2.65-.54-.43-1.11-.82-1.71-1.16-2.41-1.38-5.19-2.08-8.26-2.08-2.31,0-4.48.39-6.43,1.15-2.01.79-3.77,1.91-5.22,3.36-.36.36-.7.73-1.02,1.13-2.65-5.64-8.38-9.56-15.01-9.56-5.3,0-10.01,2.5-13.05,6.38-.91-1.13-2.29-1.86-3.85-1.86h-12.01c-2.15,0-3.97,1.37-4.66,3.27-.75-.68-1.55-1.28-2.43-1.78-2.42-1.38-5.2-2.08-8.26-2.08-2.31,0-4.48.39-6.43,1.15-2.01.79-3.77,1.91-5.22,3.36-1.48,1.46-2.62,3.22-3.4,5.23-.75,1.93-1.13,4.06-1.13,6.3s.39,4.42,1.16,6.36c.79,1.99,1.92,3.74,3.36,5.19,1.45,1.46,3.19,2.6,5.17,3.39,1.93.77,4.07,1.16,6.34,1.16,1.63,0,3.23-.21,4.73-.63,1.54-.43,2.99-1.06,4.31-1.88.65-.4,1.25-.86,1.82-1.36.69,1.91,2.51,3.28,4.67,3.28h12.01c2.74,0,4.96-2.22,4.96-4.95v-2.04c1.92,2.89,4.62,6.26,8.43,10.06.97.97,2.24,1.45,3.51,1.45s2.54-.48,3.51-1.45c4.51-4.5,7.48-8.4,9.42-11.62.77,1.74,1.79,3.28,3.09,4.59,1.45,1.46,3.19,2.6,5.17,3.39,1.93.77,4.07,1.16,6.34,1.16,1.63,0,3.23-.21,4.73-.63,1.54-.43,2.99-1.06,4.31-1.88,1.2-.75,2.26-1.68,3.19-2.75.33.44.68.86,1.07,1.24,2.47,2.47,5.99,3.71,10.45,3.71,3.84,0,6.97-.93,9.33-2.75,0,0,2.95-3.57,2.95-12.04,0-11.82-.88-14.79-.88-14.79ZM26.94,21.79c-.09.91-.28,1.76-.56,2.54-.39,1.1-.92,2.07-1.6,2.92-.67.85-1.46,1.56-2.37,2.12-.91.57-1.9,1-2.98,1.3-1.08.3-2.22.45-3.42.45-1.64,0-3.14-.27-4.49-.81-1.35-.54-2.52-1.3-3.49-2.28-.97-.98-1.73-2.15-2.27-3.52-.54-1.37-.81-2.88-.81-4.54s.27-3.14.8-4.51c.53-1.37,1.29-2.54,2.27-3.51.98-.97,2.16-1.72,3.54-2.26,1.38-.54,2.92-.81,4.62-.81,2.2,0,4.14.48,5.8,1.43,1.66.95,2.98,2.42,3.95,4.41l-5.21,2.15c-.49-1.16-1.12-1.98-1.89-2.49-.78-.5-1.66-.75-2.65-.75-.82,0-1.57.15-2.24.46-.67.31-1.25.75-1.72,1.31-.48.57-.85,1.25-1.12,2.05-.27.8-.41,1.7-.41,2.68,0,.89.12,1.72.35,2.49.23.76.58,1.43,1.05,1.98.47.56,1.05.99,1.74,1.3.69.31,1.49.46,2.41.46.54,0,1.06-.06,1.57-.18.5-.12.96-.32,1.36-.59s.73-.62.99-1.05c.26-.43.44-.95.53-1.56h-4.51v-4.25h10.89c0,1.12-.05,2.13-.14,3.05Zm16.62-7.69h-6.53v3.52h6.16v4.64h-6.16v3.63h6.53v4.64h-12.01V9.46h12.01v4.64Zm16.9,20.95c-12.02-12-11.63-18.46-11.63-18.46,0-6.43,5.2-11.63,11.63-11.63s11.64,5.21,11.64,11.63c0,0,.39,6.47-11.64,18.46Zm38.44-13.26c-.09.91-.28,1.76-.56,2.54-.39,1.1-.92,2.07-1.6,2.92-.67.85-1.46,1.56-2.37,2.12-.9.57-1.9,1-2.98,1.3-1.08.3-2.22.45-3.42.45-1.64,0-3.14-.27-4.49-.81-1.35-.54-2.52-1.3-3.49-2.28-.97-.98-1.73-2.15-2.27-3.52-.54-1.37-.81-2.88-.81-4.54s.27-3.14.8-4.51c.53-1.37,1.29-2.54,2.27-3.51.98-.97,2.16-1.72,3.54-2.26,1.38-.54,2.92-.81,4.62-.81,2.2,0,4.13.48,5.8,1.43,1.66.95,2.98,2.42,3.95,4.41l-5.21,2.15c-.49-1.16-1.12-1.98-1.89-2.49-.78-.5-1.66-.75-2.65-.75-.82,0-1.57.15-2.24.46-.67.31-1.25.75-1.72,1.31-.48.57-.85,1.25-1.12,2.05-.27.8-.41,1.7-.41,2.68,0,.89.12,1.72.35,2.49.23.76.58,1.43,1.05,1.98.47.56,1.05.99,1.74,1.3.69.31,1.49.46,2.41.46.54,0,1.06-.06,1.57-.18.5-.12.96-.32,1.36-.59.4-.27.73-.62.99-1.05.26-.43.44-.95.53-1.56h-4.51v-4.25h10.89c0,1.12-.05,2.13-.14,3.05Zm22.01-.41c0,3.28-.75,5.67-2.25,7.18-1.5,1.51-3.81,2.26-6.93,2.26s-5.43-.75-6.94-2.26c-1.51-1.51-2.27-3.9-2.27-7.18v-12.21h5.49v11.46c0,.61.02,1.24.07,1.89.05.64.19,1.23.42,1.75.23.52.6.95,1.11,1.27.5.33,1.21.49,2.13.49s1.62-.16,2.12-.49c.49-.33.86-.75,1.1-1.27.24-.52.39-1.1.43-1.75.05-.64.07-1.27.07-1.89v-11.46h5.46v12.21Z"/>
      </g>
    </g>
  </g>
</svg>