<?xml version="1.0" encoding="UTF-8"?>
<svg id="Layer_2" data-name="Layer 2" xmlns="http://www.w3.org/2000/svg" viewBox="0 0 511.19 511.07">
  <g id="Layer_1-2" data-name="Layer 1">
    <g id="JDhC4h.tif">
      <path d="m0,284.5C0,264.87,0,245.24,0,225.61c.32-.54.78-1.03.95-1.61,4.15-14.1,13.65-22.05,28.06-24.07,11.35-1.6,22.74-3.04,34.14-4.19,3.71-.37,5.41-1.81,6.66-5.28,2.58-7.17,5.58-14.21,8.77-21.14,1.2-2.62,1.21-4.34-.64-6.65-7.38-9.21-14.6-18.55-21.76-27.93-10.97-14.36-9.94-30.96,2.71-43.74,10.53-10.64,21.13-21.21,31.76-31.75,13.1-12.99,29.46-14.14,44.09-3.03,9.4,7.14,18.71,14.4,27.96,21.73,2.06,1.63,3.65,2.03,6.2.87,7.4-3.35,14.91-6.49,22.52-9.34,2.78-1.04,3.87-2.53,4.19-5.33,1.3-11.39,2.8-22.76,4.17-34.14C201.97,11.57,214.83.08,233.41.04c15.14-.03,30.27-.07,45.41.01,16.4.09,29.15,10.53,31.84,26.65,2.05,12.28,3.36,24.69,4.83,37.06.35,2.95,1.28,4.61,4.35,5.72,7.48,2.7,14.84,5.81,22.07,9.13,2.66,1.22,4.4,1.07,6.66-.72,9.09-7.26,18.31-14.37,27.52-21.48,14.52-11.2,31.04-10.3,44.15,2.56,10.68,10.48,21.26,21.08,31.76,31.74,13.09,13.29,14.01,29.6,2.58,44.51-6.98,9.1-13.99,18.19-21.16,27.14-1.91,2.38-2.13,4.24-.81,7.08,3.22,6.91,6.21,13.96,8.74,21.15,1.26,3.59,3.18,4.74,6.77,5.13,12.22,1.35,24.45,2.74,36.57,4.76,15.59,2.6,26.2,15.3,26.37,31.06.17,15.96.16,31.93,0,47.89-.16,15.77-10.77,28.53-26.3,31.13-12.12,2.03-24.35,3.47-36.57,4.77-3.91.42-5.68,1.93-6.97,5.56-2.49,7.03-5.42,13.92-8.57,20.68-1.3,2.79-1.23,4.66.71,7.08,7.18,8.95,14.18,18.03,21.17,27.14,11.55,15.05,10.54,31.33-2.84,44.89-10.4,10.53-20.86,21-31.41,31.39-13.07,12.88-29.56,13.83-44.13,2.64-9.23-7.09-18.43-14.21-27.54-21.46-2.21-1.75-3.95-2.08-6.65-.84-7.23,3.33-14.6,6.37-22.05,9.19-2.67,1.01-4.06,2.24-4.37,5.16-.94,8.92-2.06,17.83-3.23,26.72-1.13,8.54-1.68,17.2-7.18,24.55-5.26,7.04-12.51,10.65-20.63,13.02h-57.9c-.6-.28-1.17-.66-1.79-.82-14.24-3.73-22.53-12.98-24.73-27.4-1.78-11.66-3.13-23.39-4.39-35.12-.37-3.42-1.6-5.19-4.95-6.39-7.18-2.58-14.23-5.55-21.16-8.73-2.76-1.27-4.64-1.3-7.09.67-9.08,7.29-18.28,14.42-27.55,21.46-14.7,11.17-31.1,10.16-44.15-2.71-10.66-10.51-21.24-21.11-31.77-31.76-12.92-13.07-13.9-29.46-2.68-44.12,7.18-9.38,14.55-18.6,21.6-28.08,1-1.34,1.32-3.99.73-5.57-2.92-7.76-6.1-15.44-9.58-22.97-.78-1.69-3.01-3.54-4.79-3.8-11.34-1.69-22.74-3.02-34.13-4.36-8.94-1.05-17.05-4.13-22.41-11.5C4.42,295.29,2.53,289.65,0,284.5Zm252.41,77.51c57.53,2.63,106.8-43.7,109.61-103.06,2.73-57.76-43.84-107.29-103.3-109.86-57.67-2.49-107,43.89-109.62,103.05-2.56,57.92,43.73,107.14,103.31,109.87Z"/>
    </g>
  </g>
</svg>