<?xml version="1.0" encoding="UTF-8"?>
<svg id="Layer_2" data-name="Layer 2" xmlns="http://www.w3.org/2000/svg" viewBox="0 0 200 252">
  <g id="Layer_1-2" data-name="Layer 1">
    <g id="ksHGx8">
      <g>
        <path d="m0,149c1.22-13.29,3.3-26.41,9.26-38.53,16.71-33.98,43.7-53.55,81.53-57.77.79-.09,1.6-.01,2.66-.01.6,2.9,1.17,5.62,1.74,8.36-5.15,3.75-10.21,7.44-15.45,11.25.75,1.36,1.61,2.55,2.11,3.87,2.51,6.67,1.8,8.78-4.75,11.62-6.09,2.63-11.69,5.44-12.16,13.09,3.99-1.96,8.14-4.24,12.51-6,1.58-.64,4.04-.69,5.46.12,6.17,3.53,12.23,7.3,18.09,11.34,3.94,2.72,7.4,6.04,12.85,4.69.78-.19,2.9,1.43,2.85,2.08-.32,3.86,0,8.49-2.06,11.26-1.69,2.27-6.36,2.98-9.76,3.11-3.12.12-6.01-2.37-9.3,1.05-.95.99-5.35-1.29-8.15-2.11-4.23-1.24-7.82-3.08-7.19-8.78-2.02.26-3.68.27-5.22.7-8.94,2.5-20.75,18.12-21.05,27.47-.17,5.57.23,10.75,3.82,15.54,2.37,3.16,4.86,4.1,8.48,3.5,2.94-.48,5.93-.93,8.91-.96,6.59-.07,9.67,2.79,11.01,9.14.67,3.18,1.73,6.37,3.17,9.28,2.38,4.81,3.81,9.77,2.04,14.89-1.48,4.26-1.06,8.06.47,12.08,1.53,4.02,2.78,8.15,4.21,12.4,4.81,1.29,8-.99,9.85-5.18,1.35-3.06,1.66-6.61,3.14-9.59,1.27-2.56,3.69-4.54,5.31-6.96,1.08-1.61,2.75-3.97,2.26-5.31-3.39-9.36-.03-16.7,5.97-23.6,2.26-2.6,4.06-5.61,6.13-8.52-.81-.55-1.31-1.04-1.91-1.27-3.29-1.26-6.66-3.16-5.79-6.93.42-1.8,3.95-2.97,6.18-4.24,1.28-.73,2.81-1,4.17-1.6,3.42-1.5,4.4-3.77,2.27-7.12-2.59-4.07-5.25-8.11-7.52-12.35-.75-1.4-1.12-3.86-.37-4.97.71-1.05,3.15-1.44,4.75-1.28,5.62.59,11.21,1.47,16.79,2.37,7.12,1.15,12.45,6.48,13.76,13.49.51,2.75,1.13,5.48,1.96,9.45,2.45-4.54,4.1-8.22,6.32-11.53,1.71-2.55,4.12-4.64,6.22-6.94,1.56,2.52,3.41,4.91,4.6,7.59,1.71,3.84,2.94,7.9,4.26,11.55,7.08-15,2.6-28.77-4.86-42.16-.81-1.45-1.66-2.87-2.67-4.6,1.51-2.02,3.07-4.1,4.99-6.66,6.17,8.19,10.57,16.9,13.02,26.32,2.33,8.95,3.45,18.22,5.11,27.35v6c-.26,1.8-.57,3.59-.76,5.4-4.19,39.7-24.61,67.82-61.07,83.68-9.42,4.1-20.07,5.36-30.16,7.92h-16c-.95-.26-1.89-.65-2.86-.78-39-5.08-66.39-25.87-81.41-61.95-4.31-10.37-5.24-22.14-7.72-33.27,0-2.33,0-4.67,0-7Zm132.52,6.95c4.43,3.5,3.25,7.36,1.24,10.99-1.84,3.33-3.87,6.67-6.38,9.51-4.47,5.05-5.51,10.45-3.83,16.92.65,2.51.46,5.87-.74,8.08-2.16,3.97-8.66,5.67-5.99,12.1.04.1-.1.31-.19.44-2.26,3.21-4.4,6.51-6.81,9.6-4.61,5.91-11.24,6.27-17.75,5.3-5.19-.78-2.33-6.2-3.96-9.21-1.25-2.3-1.88-4.96-2.63-7.5-.89-3.02-2.99-6.56-2.16-9.07,3.19-9.52-.17-17.72-3.7-26.06-.06-.15-.07-.33-.08-.49-.34-4.34-2.6-6.26-6.97-5.57-2.13.34-4.28.56-6.41.96-5.69,1.06-9.73-1.06-13.38-5.54-6.54-8.02-6.43-17.05-5.38-26.49.81-7.24,6.29-11.4,10.21-16.69,5.72-7.72,12.9-12.16,22.55-12.97,4.7-.4,7.33.46,7.38,5.89.01,1.33,2.55,2.64,3.92,3.96,4.22-5.02,8.39-1.06,12.65-.04,1.7.41,3.57.07,4.97.07-3.33-2.16-6.19-4.07-9.1-5.9-2.1-1.33-4.26-2.56-6.4-3.84-3.84-2.3-7.59-4.78-11.57-6.8-1.64-.83-3.92-1.25-5.68-.86-5.33,1.2-10.47,3.31-15.82,4.25-4.43.78-6.12-1.98-4.42-6.11q5.34-13.03,18.45-19.69c.54-.28,1.03-.66,1.76-1.13-.73-.82-1.34-1.35-1.77-2.01-3.92-5.93-3.34-8.64,2.54-12.58,1.7-1.14,3.28-2.44,4.92-3.66-1.26-.59-2.06-.48-2.85-.29C31.55,73.19,1.73,116.96,8.12,165.48c.74,5.6,2.38,9.72,8.36,11.28,2.69.7,5.1,2.43,7.76,3.36,4.38,1.52,5.41,4.51,4.31,8.65-.94,3.52-1.79,7.08-2.89,10.55-1.31,4.1-.85,7.41,2.06,10.99,37.87,46.59,108.44,46.13,145.41-1.19,11.95-15.3,18.5-32.72,19.31-52.54-1.65.66-2.85,1.17-4.06,1.61-6.43,2.34-7.48,1.85-9.83-4.61-1.29-3.56-2.55-7.13-4.1-11.47-1.74,3.21-3.01,5.88-4.59,8.35-1.49,2.33-2.93,4.92-5.04,6.58-4.44,3.51-6.74,2.46-7.86-2.98-.94-4.56-2.34-9.07-2.69-13.67-.33-4.33-3.03-6.41-6.23-7.52-3.7-1.29-7.78-1.47-12.34-2.24,8.74,16.48,8.44,18.92-3.18,25.33Zm-113.06,39.9c1.04-3.84,1.68-6.21,2.43-9.01-2.57-1.09-4.83-2.05-8.26-3.5,2.15,4.6,3.67,7.88,5.83,12.51Z"/>
        <path d="m152,0c7.66,1.74,15.02,4.16,21.13,9.41,15.36,13.21,18.43,30.32,14.57,48.99-4.47,21.64-16.42,38.57-34.68,51.1-4.16,2.85-7.64,2.79-11.79-.15-19.79-14.01-33.82-31.76-37.61-56.39-3.9-25.3,11.4-47.06,36.65-52.15.61-.12,1.16-.54,1.74-.81,3.33,0,6.67,0,10,0Zm-4.62,105.28c22.65-16.23,36.21-36.85,34.54-65.4-1.05-17.86-16.36-32.67-33.45-32.87-24.76-.29-42.82,22.11-37.93,46.94,4.42,22.47,17.9,38.41,36.84,51.33Z"/>
        <path d="m146.28,24.72c10.66.08,18.85,8.44,18.78,19.16-.07,10.49-8.81,19.12-19.19,18.95-10.42-.17-18.96-8.92-18.87-19.36.09-10.52,8.63-18.83,19.29-18.75Z"/>
      </g>
    </g>
  </g>
</svg>