<?xml version="1.0" encoding="UTF-8"?>
<svg id="Layer_2" data-name="Layer 2" xmlns="http://www.w3.org/2000/svg" viewBox="0 0 208 242">
  <g id="Layer_1-2" data-name="Layer 1">
    <g>
      <path d="m113,0c3.89.81,7.87,1.34,11.66,2.47,20.7,6.15,36.24,25.41,37.22,47.71,1.76,40.34-16.38,70.6-49.1,92.85-1.42.97-4.67.88-6.15-.1-26.16-17.48-44.71-40.42-51.26-71.97C48.65,38.59,67.22,9.03,99.21,1.6,102.11.93,105.07.53,108,0c1.67,0,3.33,0,5,0Zm22.21,55.17c0-15.03-11.93-27.12-26.83-27.15-14.81-.03-27.05,12.11-27.17,26.94-.12,14.82,12.02,27,26.96,27.04,15.04.04,27.03-11.86,27.04-26.84Z"/>
      <path d="m0,103c1.26-1.28,2.28-3.13,3.81-3.74,10.75-4.34,21.61-8.44,32.74-12.73,1.43,4.09,2.73,7.79,4.13,11.77-8.38,3.25-16.36,6.47-24.45,9.42-2.53.93-3.71,2.07-3.71,4.95.09,36.49.06,72.98.07,109.46,0,.81.17,1.61.32,2.86,1.88-.84,3.53-1.5,5.12-2.3,13.07-6.59,26.05-13.35,39.22-19.72,3.7-1.79,4.79-4,4.74-7.98-.21-18.82-.09-37.65-.09-56.48,0-1.61,0-3.21,0-4.82l-.59,1.04c3.94,3.22,8.04,6.27,11.71,9.77,1.06,1.01,1.19,3.33,1.2,5.05.09,15.49.07,30.99.02,46.48,0,2.44.09,4.3,2.93,5.5,18.21,7.7,36.33,15.62,54.48,23.45.43.19.95.17,1.94.33.08-1.83.23-3.56.23-5.3.02-19.66.15-39.32-.1-58.98-.06-4.3,1.08-7.21,4.61-9.6,2.55-1.72,4.7-4.04,7.75-6.71v80.6c4.57-2.31,8.38-4.24,12.19-6.15,11.27-5.67,22.6-11.24,33.77-17.1,1.54-.81,3.33-3.03,3.34-4.6.18-34.82.13-69.64.11-104.47,0-.63-.22-1.25-.46-2.51-5.94,2.21-11.62,4.32-17.94,6.67,1.38-4.84,2.47-9.26,3.99-13.53.39-1.11,2.01-2.01,3.26-2.54,4.13-1.75,8.43-3.1,12.51-4.95,4.62-2.1,8.29-1.47,11.15,2.84v127c-2.07,1.8-3.87,4.11-6.24,5.32-20.2,10.34-40.5,20.48-60.76,30.68h-3c-.19-.25-.32-.64-.57-.74-22.24-9.67-44.47-19.36-66.76-28.9-1.29-.55-3.31-.47-4.57.16-19.41,9.75-38.74,19.63-58.1,29.48H0C0,195.67,0,149.33,0,103Z"/>
    </g>
  </g>
</svg>